<?xml version="1.0" encoding="utf-8"?>
<!-- Generator: Adobe Illustrator 25.4.1, SVG Export Plug-In . SVG Version: 6.00 Build 0)  -->
<svg version="1.1" id="Layer_1" xmlns="http://www.w3.org/2000/svg" xmlns:xlink="http://www.w3.org/1999/xlink" x="0px" y="0px"
	 viewBox="0 0 19.5 19" style="enable-background:new 0 0 19.5 19;" xml:space="preserve">
<path d="M10,0c0.4,0,0.7,0.1,1.1,0.1c3.2,0.5,5.5,2.2,7.1,5c1,1.7,1.3,3.6,1.2,5.6c-0.2,2.5-1.3,4.5-3,6.2c-1,1-2.2,1.6-3.5,2.1
	c-0.5,0.2-0.7,0-0.7-0.5c0-0.8,0-1.7,0-2.5c0-0.5-0.1-1-0.3-1.5c-0.1-0.1-0.2-0.3-0.3-0.4c0.4-0.1,0.8-0.1,1.1-0.2
	c1-0.3,1.9-0.7,2.5-1.6c0.4-0.6,0.6-1.4,0.7-2.1C16,9.6,16,9,15.9,8.4c-0.1-0.6-0.4-1.2-0.8-1.7C15,6.7,14.9,6.6,15,6.5
	c0.3-0.8,0.2-1.6-0.1-2.4c0,0-0.1-0.1-0.2-0.1c-0.3-0.1-0.7,0-1,0.2c-0.5,0.2-0.9,0.5-1.4,0.7C12.2,5,12.1,5,12,5
	c-1.5-0.4-3-0.4-4.5,0C7.3,5,7.2,5,7.1,4.9C6.5,4.5,5.9,4.2,5.2,4.1C4.7,3.9,4.6,4,4.5,4.5c-0.2,0.7-0.2,1.4,0,2.1
	c0,0.1,0,0.1,0,0.2c-0.8,0.9-1,2-0.9,3.2c0.1,0.7,0.2,1.3,0.5,2c0.4,0.9,1.2,1.4,2.1,1.7c0.6,0.2,1.2,0.3,1.7,0.4
	c-0.1,0.2-0.3,0.5-0.4,0.7c0,0.1-0.1,0.2-0.1,0.3c0,0.2-0.1,0.3-0.3,0.4c-0.6,0.2-1.2,0.3-1.8-0.1c-0.3-0.2-0.5-0.5-0.7-0.8
	c-0.3-0.5-0.7-0.8-1.2-1c-0.2-0.1-0.4,0-0.6,0c-0.1,0-0.2,0.1-0.1,0.2c0.1,0.1,0.2,0.2,0.3,0.3c0.5,0.3,0.8,0.8,1.1,1.3
	c0.1,0.3,0.3,0.6,0.5,0.8c0.4,0.4,0.9,0.5,1.4,0.5c0.5,0,0.9,0,1.4,0c0,0,0,0,0,0.1c0,0.5,0,1.1,0,1.6c0,0.4-0.3,0.7-0.7,0.5
	c-1.2-0.4-2.3-1-3.3-1.9c-1.1-1-2-2.1-2.6-3.5c-0.4-1-0.7-2-0.8-3.1c0-0.1,0-0.1,0-0.2c0-0.4,0-0.8,0-1.1C0,9.1,0,9,0,8.9
	c0.1-1.4,0.5-2.7,1.2-3.9c1.6-2.8,4-4.4,7.1-4.9C8.7,0.1,9.1,0,9.4,0C9.6,0,9.8,0,10,0z"/>
</svg>
