<?xml version="1.0" encoding="utf-8"?>
<!-- Generator: Adobe Illustrator 25.4.1, SVG Export Plug-In . SVG Version: 6.00 Build 0)  -->
<svg version="1.1" id="Layer_1" xmlns="http://www.w3.org/2000/svg" xmlns:xlink="http://www.w3.org/1999/xlink" x="0px" y="0px"
	 viewBox="0 0 63.4 22.6" style="enable-background:new 0 0 63.4 22.6;" xml:space="preserve">
<style type="text/css">
	.st0{fill:#FFFFFF;}
	.st1{clip-path:url(#SVGID_00000090997041180247317460000009099734295337636000_);}
	.st2{clip-path:url(#SVGID_00000127021479437892675200000001176015039845545892_);}
	.st3{clip-path:url(#SVGID_00000093142559083656634120000010609275100777555633_);}
	.st4{clip-path:url(#SVGID_00000077299868838017435640000017446280959281235877_);}
	.st5{clip-path:url(#SVGID_00000047741036324392089080000009534255804647852694_);}
	.st6{clip-path:url(#SVGID_00000136410095188875458210000002968572548907712149_);}
	.st7{clip-path:url(#SVGID_00000021109609172013862990000008891931855136082320_);}
</style>
<g>
	<g>
		<path d="M32.7,7l3-0.2c0.1,0.5,0.2,0.9,0.4,1.1c0.3,0.4,0.8,0.6,1.4,0.6c0.4,0,0.8-0.1,1-0.3c0.2-0.2,0.4-0.4,0.4-0.7
			c0-0.3-0.1-0.5-0.3-0.7c-0.2-0.2-0.8-0.4-1.6-0.6c-1.4-0.3-2.4-0.7-3-1.2c-0.6-0.5-0.9-1.2-0.9-2c0-0.5,0.2-1.1,0.5-1.5
			c0.3-0.5,0.8-0.9,1.4-1.1C35.6,0.1,36.4,0,37.5,0c1.3,0,2.3,0.2,3,0.7c0.7,0.5,1.1,1.3,1.2,2.3l-3,0.2c-0.1-0.5-0.2-0.8-0.5-1
			c-0.3-0.2-0.6-0.3-1.1-0.3c-0.4,0-0.6,0.1-0.8,0.2C36.2,2.3,36,2.5,36,2.7c0,0.2,0.1,0.3,0.2,0.4c0.1,0.1,0.5,0.3,1.1,0.4
			c1.4,0.3,2.4,0.6,3,0.9c0.6,0.3,1,0.7,1.3,1.1C41.9,6,42,6.5,42,7.1c0,0.6-0.2,1.3-0.6,1.8c-0.4,0.6-0.9,1-1.5,1.3
			c-0.7,0.3-1.5,0.4-2.5,0.4c-1.7,0-2.9-0.3-3.6-1C33.2,8.9,32.8,8.1,32.7,7z M0.7,10.4V0.2H6c1,0,1.7,0.1,2.2,0.3
			c0.5,0.2,1,0.5,1.2,0.9C9.8,1.9,10,2.4,10,3c0,1-0.5,2-1.4,2.5C8.3,5.7,7.9,5.8,7.5,5.9C7.8,6,8.1,6.1,8.3,6.3
			c0.2,0.2,0.4,0.3,0.5,0.5C9,7,9.2,7.2,9.3,7.5l1.5,3H7.2L5.5,7.3C5.3,6.9,5.1,6.6,5,6.5C4.7,6.3,4.4,6.3,4.2,6.3H3.9v4.2L0.7,10.4
			L0.7,10.4z M3.9,4.3h1.3c0.3,0,0.6-0.1,0.8-0.1c0.2,0,0.4-0.1,0.5-0.3c0.3-0.4,0.3-1-0.1-1.4C6.3,2.3,5.9,2.3,5.3,2.3H3.9V4.3z
			 M0,19.2L3,19c0.1,0.5,0.2,0.9,0.4,1.1c0.3,0.4,0.8,0.6,1.4,0.6c0.4,0,0.8-0.1,1-0.3c0.2-0.2,0.4-0.4,0.4-0.7
			c0-0.3-0.1-0.5-0.3-0.7c-0.2-0.2-0.8-0.4-1.6-0.6c-1.4-0.3-2.4-0.7-3-1.2c-0.6-0.5-0.9-1.2-0.9-2c0-0.5,0.2-1.1,0.5-1.5
			c0.3-0.5,0.8-0.9,1.4-1.1c0.6-0.3,1.5-0.4,2.5-0.4c1.3,0,2.3,0.2,3,0.7c0.7,0.5,1.1,1.3,1.2,2.3l-3,0.2c-0.1-0.5-0.2-0.8-0.5-1
			c-0.3-0.2-0.6-0.3-1.1-0.3c-0.4,0-0.6,0.1-0.8,0.2c-0.2,0.1-0.3,0.3-0.3,0.6c0,0.2,0.1,0.3,0.2,0.4c0.1,0.1,0.5,0.3,1.1,0.4
			C6,16,7,16.3,7.6,16.6c0.6,0.3,1,0.7,1.3,1.1c0.3,0.5,0.4,1,0.4,1.5c0,0.6-0.2,1.3-0.6,1.8c-0.4,0.6-0.9,1-1.5,1.3
			c-0.7,0.3-1.5,0.4-2.5,0.4c-1.7,0-2.9-0.3-3.6-1C0.5,21.1,0.1,20.2,0,19.2L0,19.2z"/>
	</g>
	<g>
		<path d="M15.2,18.4l2.8,0.8c-0.1,0.7-0.5,1.4-0.9,1.9c-0.4,0.5-0.9,0.9-1.5,1.2c-0.6,0.3-1.4,0.4-2.3,0.4c-1.1,0-2-0.2-2.7-0.5
			c-0.7-0.3-1.3-0.9-1.8-1.7C8.3,19.8,8,18.7,8,17.5c0-1.7,0.4-3,1.4-3.9c0.9-0.9,2.2-1.4,3.8-1.4c1.3,0,2.3,0.3,3,0.8
			c0.7,0.5,1.3,1.3,1.7,2.4L15.1,16c-0.1-0.2-0.2-0.5-0.3-0.7c-0.2-0.2-0.4-0.4-0.7-0.6c-0.3-0.1-0.6-0.2-0.9-0.2
			c-0.7,0-1.3,0.3-1.7,0.9c-0.3,0.4-0.4,1.1-0.4,2c0,1.1,0.2,1.9,0.5,2.3c0.3,0.4,0.8,0.6,1.5,0.6c0.6,0,1.1-0.2,1.4-0.5
			C14.9,19.5,15.1,19,15.2,18.4L15.2,18.4z M21.7,12.4h3.2v3.6h3.5v-3.6h3.2v10.2h-3.2v-4.1h-3.5v4.1h-3.2
			C21.7,22.6,21.7,12.4,21.7,12.4z"/>
	</g>
	<g>
		<path d="M31.1,17.5c0-1.7,0.5-3,1.4-3.9c0.9-0.9,2.2-1.4,3.9-1.4c1.7,0,3,0.5,3.9,1.4c0.9,0.9,1.4,2.2,1.4,3.9
			c0,1.2-0.2,2.2-0.6,2.9c-0.4,0.8-1,1.4-1.7,1.8c-0.8,0.4-1.7,0.6-2.9,0.6c-1.2,0-2.1-0.2-2.9-0.6c-0.8-0.4-1.4-1-1.8-1.7
			C31.3,19.7,31.1,18.7,31.1,17.5z M34.3,17.5c0,1,0.2,1.8,0.6,2.2c0.4,0.4,0.9,0.7,1.6,0.7c0.7,0,1.2-0.2,1.6-0.7
			c0.4-0.4,0.6-1.2,0.6-2.4c0-1-0.2-1.7-0.6-2.1c-0.4-0.4-0.9-0.7-1.6-0.7c-0.6,0-1.1,0.2-1.5,0.7S34.3,16.4,34.3,17.5L34.3,17.5z
			 M45,17.5c0-1.7,0.5-3,1.4-3.9c0.9-0.9,2.2-1.4,3.9-1.4c1.7,0,3,0.5,3.9,1.4s1.4,2.2,1.4,3.9c0,1.2-0.2,2.2-0.6,2.9
			c-0.4,0.8-1,1.4-1.7,1.8c-0.8,0.4-1.7,0.6-2.9,0.6c-1.2,0-2.1-0.2-2.9-0.6c-0.8-0.4-1.4-1-1.8-1.7C45.2,19.7,45,18.7,45,17.5z
			 M48.1,17.5c0,1,0.2,1.8,0.6,2.2c0.4,0.4,0.9,0.7,1.6,0.7c0.7,0,1.2-0.2,1.6-0.7c0.4-0.4,0.6-1.2,0.6-2.4c0-1-0.2-1.7-0.6-2.1
			c-0.4-0.4-0.9-0.7-1.6-0.7c-0.6,0-1.2,0.2-1.5,0.7C48.3,15.7,48.1,16.4,48.1,17.5L48.1,17.5z"/>
	</g>
	<g>
		<path d="M55.3,12.4h3.2v7.7h4.9v2.5h-8.1L55.3,12.4L55.3,12.4z"/>
	</g>
	<g>
		<ellipse transform="matrix(0.7986 -0.6018 0.6018 0.7986 5.4792 30.421)" class="st0" cx="48.2" cy="7" rx="7.2" ry="5.9"/>
	</g>
	<g>
		<defs>
			<ellipse id="SVGID_1_" transform="matrix(0.7986 -0.6018 0.6018 0.7986 5.4792 30.421)" cx="48.2" cy="7" rx="7.2" ry="5.9"/>
		</defs>
		<clipPath id="SVGID_00000023273130657110407720000014204602704571074727_">
			<use xlink:href="#SVGID_1_"  style="overflow:visible;"/>
		</clipPath>
		<g style="clip-path:url(#SVGID_00000023273130657110407720000014204602704571074727_);">
			<g>
				<path class="st0" d="M34.3,5.7L50.8-6.7L62.2,8.4L45.7,20.8L34.3,5.7z"/>
			</g>
			<g id="Layer_2_1_">
				<g>
					<defs>
						
							<rect id="SVGID_00000159466373155153709590000008688631774260118710_" x="37.9" y="-2.4" transform="matrix(0.7986 -0.6018 0.6018 0.7986 5.4522 30.4529)" width="20.6" height="18.9"/>
					</defs>
					<clipPath id="SVGID_00000103956264461852546040000017783892974707153066_">
						<use xlink:href="#SVGID_00000159466373155153709590000008688631774260118710_"  style="overflow:visible;"/>
					</clipPath>
					<g id="Layer_1-2" style="clip-path:url(#SVGID_00000103956264461852546040000017783892974707153066_);">
						<g>
							<ellipse transform="matrix(0.7986 -0.6018 0.6018 0.7986 5.4792 30.421)" class="st0" cx="48.2" cy="7" rx="7.2" ry="5.9"/>
						</g>
						<g>
							<defs>
								
									<ellipse id="SVGID_00000080172844960444224810000005222667900044950419_" transform="matrix(0.7986 -0.6018 0.6018 0.7986 5.4792 30.421)" cx="48.2" cy="7" rx="7.2" ry="5.9"/>
							</defs>
							<clipPath id="SVGID_00000004531548806564947110000006890424326833851780_">
								<use xlink:href="#SVGID_00000080172844960444224810000005222667900044950419_"  style="overflow:visible;"/>
							</clipPath>
							<g style="clip-path:url(#SVGID_00000004531548806564947110000006890424326833851780_);">
								<g>
									<path class="st0" d="M38.9,6.7L50.4-2l7.2,9.5L46,16.2L38.9,6.7z"/>
								</g>
								<g>
									<defs>
										
											<rect id="SVGID_00000142857186255221956610000016991737418687493295_" x="41" y="1.2" transform="matrix(0.7986 -0.6018 0.6018 0.7986 5.4165 30.4629)" width="14.4" height="11.9"/>
									</defs>
									<clipPath id="SVGID_00000030479620142192527680000015020605780791044783_">
										<use xlink:href="#SVGID_00000142857186255221956610000016991737418687493295_"  style="overflow:visible;"/>
									</clipPath>
									<g style="clip-path:url(#SVGID_00000030479620142192527680000015020605780791044783_);">
										<g>
											
												<ellipse transform="matrix(0.7986 -0.6018 0.6018 0.7986 5.4792 30.421)" class="st0" cx="48.2" cy="7" rx="7.2" ry="5.9"/>
											<path d="M46.9,13.7c-1.9,0-3.6-0.7-4.7-2.2c-2-2.7-1-6.9,2.2-9.4l0,0c3.3-2.5,7.6-2.3,9.7,0.4c2,2.7,1,6.9-2.2,9.4
												C50.4,13.1,48.6,13.7,46.9,13.7z M44.8,2.5c-3.1,2.3-4,6.3-2.1,8.8c1.9,2.5,5.9,2.7,9,0.4c3.1-2.3,4-6.3,2.1-8.8
												C51.9,0.3,47.8,0.1,44.8,2.5L44.8,2.5z"/>
										</g>
									</g>
								</g>
								<g>
									<defs>
										
											<rect id="SVGID_00000053541377842437055850000001144917406315298963_" x="41" y="1.2" transform="matrix(0.2756 -0.9613 0.9613 0.2756 28.0798 51.536)" width="14.4" height="11.9"/>
									</defs>
									<clipPath id="SVGID_00000133521621004150248230000006365845503416293761_">
										<use xlink:href="#SVGID_00000053541377842437055850000001144917406315298963_"  style="overflow:visible;"/>
									</clipPath>
									<g style="clip-path:url(#SVGID_00000133521621004150248230000006365845503416293761_);">
										<path d="M46,16.5l-7.4-9.9l11.9-9l7.4,9.9L46,16.5z M39.2,6.8l6.9,9.1l11.2-8.4l-6.9-9.1L39.2,6.8z"/>
									</g>
								</g>
								<g>
									<path d="M46.9,13.7c-1.9,0-3.6-0.7-4.7-2.2c-2-2.7-1-6.9,2.2-9.4l0,0c3.3-2.5,7.6-2.3,9.7,0.4c2,2.7,1,6.9-2.2,9.4
										C50.4,13.1,48.6,13.7,46.9,13.7z M44.8,2.5c-3.1,2.3-4,6.3-2.1,8.8c1.9,2.5,5.9,2.7,9,0.4c3.1-2.3,4-6.3,2.1-8.8
										C51.9,0.3,47.8,0.1,44.8,2.5L44.8,2.5z"/>
								</g>
								<g>
									<path class="st0" d="M38.9,6.7L50.4-2l7.2,9.5L46,16.2L38.9,6.7z"/>
								</g>
								<g>
									<defs>
										
											<rect id="SVGID_00000068646359155665664580000014886177041229295280_" x="41" y="1.2" transform="matrix(0.7986 -0.6018 0.6018 0.7986 5.4165 30.4629)" width="14.4" height="11.9"/>
									</defs>
									<clipPath id="SVGID_00000137826823027597365370000014145161756913485246_">
										<use xlink:href="#SVGID_00000068646359155665664580000014886177041229295280_"  style="overflow:visible;"/>
									</clipPath>
									<g style="clip-path:url(#SVGID_00000137826823027597365370000014145161756913485246_);">
										<g>
											
												<ellipse transform="matrix(0.7986 -0.6018 0.6018 0.7986 5.4792 30.421)" class="st0" cx="48.2" cy="7" rx="7.2" ry="5.9"/>
											<path d="M46.9,13.7c-1.9,0-3.6-0.7-4.7-2.2c-2-2.7-1-6.9,2.2-9.4l0,0c3.3-2.5,7.6-2.3,9.7,0.4c2,2.7,1,6.9-2.2,9.4
												C50.4,13.1,48.6,13.7,46.9,13.7z M44.8,2.5c-3.1,2.3-4,6.3-2.1,8.8c1.9,2.5,5.9,2.7,9,0.4c3.1-2.3,4-6.3,2.1-8.8
												C51.9,0.3,47.8,0.1,44.8,2.5L44.8,2.5z"/>
										</g>
									</g>
								</g>
								<g>
									<defs>
										
											<rect id="SVGID_00000053547632287665156020000005414818342889892995_" x="41" y="1.2" transform="matrix(0.2756 -0.9613 0.9613 0.2756 28.0798 51.536)" width="14.4" height="11.9"/>
									</defs>
									<clipPath id="SVGID_00000000945599647835595350000010679871889341234876_">
										<use xlink:href="#SVGID_00000053547632287665156020000005414818342889892995_"  style="overflow:visible;"/>
									</clipPath>
									<g style="clip-path:url(#SVGID_00000000945599647835595350000010679871889341234876_);">
										<path d="M46,16.5l-7.4-9.9l11.9-9l7.4,9.9L46,16.5z M39.2,6.8l6.9,9.1l11.2-8.4l-6.9-9.1L39.2,6.8z"/>
									</g>
								</g>
								<g>
									<path d="M45.7,21.2L45.5,21L34,5.7l0.2-0.1L50.8-7L62.5,8.5l-0.2,0.1L45.7,21.2z M34.6,5.8l11.1,14.7L61.8,8.4L50.7-6.4
										L34.6,5.8z"/>
								</g>
							</g>
						</g>
						<g>
							<path d="M46.9,13.7c-1.9,0-3.6-0.7-4.7-2.2c-2-2.7-1-6.9,2.2-9.4l0,0c3.3-2.5,7.6-2.3,9.7,0.4c2,2.7,1,6.9-2.2,9.4
								C50.4,13.1,48.6,13.7,46.9,13.7z M44.8,2.5c-3.1,2.3-4,6.3-2.1,8.8c1.9,2.5,5.9,2.7,9,0.4c3.1-2.3,4-6.3,2.1-8.8
								C51.9,0.3,47.8,0.1,44.8,2.5L44.8,2.5z"/>
						</g>
						<g>
							<path d="M45,6.3l1.1-0.8l1.4,2c0.2,0.3,0.4,0.7,0.6,1c0.1,0.3,0.1,0.6-0.1,0.9c-0.1,0.3-0.4,0.6-0.7,0.8
								c-0.4,0.3-0.7,0.4-1,0.5c-0.3,0-0.5,0-0.8-0.1c-0.3-0.1-0.5-0.3-0.7-0.6l1-0.9c0.1,0.1,0.2,0.2,0.3,0.3
								c0.1,0.1,0.2,0.1,0.3,0.1c0.1,0,0.2,0,0.2-0.1c0.1-0.1,0.2-0.2,0.2-0.3c0-0.2-0.1-0.4-0.2-0.5L45,6.3L45,6.3z M48.4,7.5
								l1-0.8C49.6,6.9,49.7,7,49.9,7c0.2,0.1,0.5,0,0.7-0.1c0.1-0.1,0.3-0.2,0.3-0.4c0.1-0.2,0-0.4-0.3-0.5c0,0-0.1,0-0.1,0
								c-0.1,0-0.4,0-0.7,0.2c-0.6,0.2-1,0.3-1.4,0.3c-0.3,0-0.6-0.2-0.8-0.5c-0.1-0.2-0.2-0.4-0.2-0.7c0-0.3,0.1-0.5,0.2-0.7
								C47.8,4.3,48,4,48.3,3.8c0.5-0.3,0.9-0.5,1.3-0.5c0.4,0,0.7,0.2,1,0.5l-1,0.8c-0.2-0.3-0.6-0.3-0.9-0.1l0,0
								c-0.1,0.1-0.2,0.2-0.2,0.3c0,0.1,0,0.2,0,0.3c0,0.1,0.1,0.1,0.2,0.1c0.1,0,0.3,0,0.5-0.1c0.6-0.2,1-0.4,1.3-0.4
								c0.3,0,0.5,0,0.8,0.1c0.2,0.1,0.4,0.3,0.5,0.4C52,5.4,52,5.7,52.1,6c0,0.3-0.1,0.6-0.2,0.8c-0.2,0.3-0.5,0.6-0.8,0.8
								c-0.6,0.4-1.1,0.6-1.6,0.6C49,8.1,48.7,7.9,48.4,7.5L48.4,7.5z"/>
						</g>
					</g>
				</g>
			</g>
		</g>
	</g>
</g>
</svg>
